PathFileType	4	(X/Y/Z)	C:\Users\WrightLab\Desktop\Jo\P5V26.trc
DataRate	CameraRate	NumFrames	NumMarkers	Units	OrigDataRate	OrigDataStartFrame	OrigNumFrames
100.00	100.00	       15	19	mm	100.00	647	       739
Frame#	Time	Headset_Front			Headset_Back			Headset_Left			Headset_Right			Left_Shoulder			Right_Shoulder			Sternum			C7			Left Elbow			Right Elbow			Left Wrist			Right Wrist			Left ASIS			Right ASIS			S2			Left Knee			Right Knee			Left Ankle			Right Ankle			
		X1	Y1	Z1	X2	Y2	Z2	X3	Y3	Z3	X4	Y4	Z4	X5	Y5	Z5	X6	Y6	Z6	X7	Y7	Z7	X8	Y8	Z8	X9	Y9	Z9	X10	Y10	Z10	X11	Y11	Z11	X12	Y12	Z12	X13	Y13	Z13	X14	Y14	Z14	X15	Y15	Z15	X16	Y16	Z16	X17	Y17	Z17	X18	Y18	Z18	X19	Y19	Z19	

647	6.460	-481.81860	1393.65845	2.41893				-341.72220	1548.15259	-40.68133	-571.36237	1500.93469	-49.98472	-220.64000	1533.48889	-244.41667	-595.65558	1401.67090	-173.18527	-370.06812	1291.83569	-174.12927	-455.82819	1524.42273	-328.59659	-72.38796	1277.23438	-296.51456	-714.33569	1155.48303	-112.33599	-70.46727	1043.75232	-213.73172	-340.16922	1014.35822	-471.92966	-169.02319	948.10626	-239.97234	-435.35638	905.30377	-172.39510	-736.98553	1019.31635	101.03136	-99.79958	510.18542	-297.64557	-467.73395	487.77411	-226.63229	-115.28240	101.79470	-448.13367	-436.84583	90.64013	-289.12744	
648	6.470	-481.10370	1394.66235	4.39709				-340.96655	1548.32275	-40.48705	-572.34149	1501.30957	-50.75951	-218.80023	1533.20166	-245.83978	-594.91150	1402.18420	-173.58972	-369.29178	1292.36597	-174.77795	-455.42456	1524.42859	-328.61984	-71.92540	1276.32666	-296.90103	-714.16223	1155.46643	-113.32775	-70.84815	1043.19458	-213.83852	-340.26395	1014.19598	-472.08926	-169.08195	948.05609	-239.97917	-435.50021	905.22455	-173.04889	-738.74646	1020.39551	98.28355	-99.85015	510.15872	-297.65549	-468.17276	487.61261	-226.40886	-115.33039	101.75134	-447.88049	-436.73981	90.61595	-289.10703	
649	6.480	-480.04846	1394.67297	3.53375				-341.50464	1547.52979	-40.33558	-569.87921	1501.43518	-49.35835	-218.63092	1532.67273	-246.25908	-594.44263	1402.29993	-173.76755	-368.90515	1291.87964	-174.98918	-454.61819	1524.79968	-329.35541	-72.00311	1274.55066	-297.86343	-714.06671	1155.77905	-114.58786	-70.18134	1041.25989	-215.95377	-340.35886	1014.12616	-472.09500	-169.61685	947.60455	-240.25081	-435.62024	905.13867	-173.45866	-738.27698	1020.06384	96.95309	-100.09017	509.96088	-297.88721	-468.51633	487.87460	-226.50439	-115.31568	101.76155	-447.87662	-436.39066	90.44959	-289.05188	
650	6.490	-479.09320	1394.97314	3.33436				-340.95938	1547.21033	-40.98546	-569.03619	1502.02490	-49.96025	-218.90820	1532.69275	-246.54707	-594.28296	1402.33643	-173.72397	-368.72031	1292.62390	-175.30783	-454.07819	1524.99524	-329.53641	-72.06442	1274.20044	-298.67740	-713.88629	1155.80200	-115.49037	-70.99170	1041.79517	-213.12331	-340.57138	1014.01147	-472.35770	-170.13719	947.34259	-241.39926	-435.74130	905.14331	-173.89268	-736.69971	1018.75635	95.85669	-100.59811	509.91174	-298.19116	-468.40414	488.11871	-226.24655	-115.30628	101.76733	-447.87448	-436.17545	90.58800	-289.21567	
651	6.500	-478.21848	1395.76563	4.36573				-338.26376	1549.02637	-42.10807	-567.93591	1502.40857	-49.75344	-218.18723	1532.61853	-246.95900	-593.65784	1402.60559	-174.63243	-368.54425	1292.45190	-175.60187	-453.41229	1525.28601	-329.53802	-71.75562	1274.12036	-299.54675	-714.31689	1157.09302	-117.62356	-68.21211	1041.36926	-213.30151	-340.73633	1013.92145	-472.36166	-170.87563	947.13507	-241.70297	-435.90591	905.20117	-173.99333	-736.78418	1018.30823	95.25594	-100.86182	509.64624	-298.57278	-468.10651	487.50604	-225.03687	-115.27927	101.78785	-447.86649	-435.97327	90.75171	-289.28271	
652	6.510	-476.96771	1396.22168	4.34954				-337.28464	1549.34827	-42.36957	-568.22113	1502.37292	-50.66160	-216.96609	1532.43921	-247.83585	-593.18109	1403.10559	-174.72609	-368.01303	1292.40479	-176.22244	-452.77448	1525.50977	-330.00513	-72.94045	1271.44836	-302.96051	-713.81750	1157.13330	-117.91077	-70.33199	1038.52466	-219.01627	-340.97110	1013.74725	-472.73615	-170.84091	946.29553	-241.80238	-436.11646	905.16351	-174.46317	-736.43250	1018.35608	93.05926	-101.11826	509.69232	-299.05612	-468.12076	487.49219	-225.04083	-115.23193	101.82407	-447.85236	-435.85223	90.72127	-289.23969	
653	6.520	-475.66492	1395.54517	2.28491				-337.11859	1548.60107	-43.29242	-565.75098	1502.82190	-50.67233	-215.72034	1532.03101	-248.33783	-592.28186	1402.04175	-174.27106	-366.97772	1292.87915	-175.82816	-452.24060	1525.71838	-330.29715	-72.79510	1271.31433	-304.06293	-713.38855	1157.13953	-118.25664	-70.98909	1037.93994	-220.03375	-341.44769	1013.76984	-473.03357	-170.98366	946.39722	-242.66685	-436.63754	905.15314	-175.09969	-736.09381	1017.96735	91.88651	-101.41433	510.03067	-299.19617	-468.34381	487.30664	-225.19754	-115.18908	101.85570	-447.84015	-435.63690	90.81576	-289.45923	
654	6.530	-474.79993	1395.66968	1.90660				-334.84860	1549.98718	-44.18514	-564.92786	1503.58643	-51.04921	-215.54993	1531.68811	-248.80936	-591.89154	1402.61121	-174.57935	-366.89871	1292.61755	-176.73236	-451.88950	1525.75281	-330.31345	-72.32907	1271.29932	-303.56540	-713.21667	1157.08740	-118.61530	-71.17004	1037.70898	-220.81100	-341.96317	1014.03607	-474.02548	-171.26430	945.49048	-243.23390	-437.60242	905.69592	-175.78271	-735.26514	1017.70685	91.00789	-101.55081	510.04562	-299.52686	-468.37433	487.31381	-225.21628	-115.12122	101.89349	-447.82660	-435.18784	90.71339	-289.49298	
655	6.540	-473.35156	1396.11462	1.37582				-333.76456	1550.46973	-45.09751	-564.00793	1504.15381	-51.30523	-215.00369	1531.08069	-250.14803	-591.98431	1403.81177	-175.20648	-366.81577	1292.67554	-176.66162	-451.07877	1526.11877	-331.06052	-71.17404	1272.16174	-303.72455	-712.89252	1157.71533	-119.78387	-71.37440	1037.60486	-221.01466	-342.41464	1014.04779	-474.27377	-172.06258	945.10095	-243.84576	-437.86633	905.52966	-175.98203	-734.31799	1017.39307	90.19256	-101.90543	510.55984	-299.63425	-468.66660	487.87274	-226.42043	-115.05839	101.92117	-447.81754	-435.05530	90.67490	-289.45566	
656	6.550	-471.47421	1396.86890	1.60289				-333.41626	1549.89893	-45.92020	-562.26379	1503.54822	-50.21510	-214.55261	1531.38696	-251.29396	-591.28040	1403.72644	-175.08501	-366.70505	1292.80103	-177.95039	-450.46902	1526.44641	-331.43256	-71.79614	1271.58557	-302.37082	-712.35699	1158.42468	-120.73953	-71.75244	1037.20093	-221.82875	-342.94315	1013.62823	-474.44067	-172.36874	945.04462	-244.30461	-438.03329	905.58893	-176.08421	-733.47089	1017.13184	89.38280	-102.28800	510.97421	-300.46097	-468.75421	487.88232	-226.46024	-114.54584	102.38193	-447.80380	-434.90991	90.61546	-289.42746	
657	6.560	-470.39993	1397.71667	2.86217				-333.41626	1549.89893	-45.92020	-560.95154	1504.31775	-50.58897	-214.31477	1531.18469	-251.18553	-590.37250	1404.44446	-175.48381	-366.17068	1292.81067	-178.08243	-450.07153	1526.58057	-331.63092				-711.70117	1158.47534	-121.38407	-71.77258	1036.58765	-223.06339	-343.49054	1013.39746	-474.58224	-173.22090	944.75739	-245.88409	-438.31064	905.45148	-176.15932	-732.86865	1016.81921	87.95162	-102.55004	510.63263	-301.22891	-468.85757	487.89603	-226.50797	-114.41554	102.46863	-448.04163	-434.76758	90.56567	-289.38760	
658	6.570	-468.94553	1398.74182	1.78745				-330.57092	1551.38757	-47.06641	-559.72723	1504.54114	-50.85332	-213.52171	1530.81287	-252.16422	-590.08508	1404.74866	-175.26268	-365.54099	1293.47681	-178.10561	-449.67383	1526.81677	-332.18536	-73.02777	1268.84363	-311.53482	-711.28876	1158.47058	-122.13618	-71.73352	1035.93274	-223.39024	-343.81784	1013.32068	-474.77817	-173.34288	944.72479	-245.92957	-438.92770	905.67554	-176.34436	-732.76837	1016.96313	85.99023	-102.82273	510.86426	-301.37521	-469.36197	487.84167	-226.88309	-114.27248	102.60917	-447.96390	-434.69992	90.48448	-289.64536	
659	6.580	-467.69144	1399.24817	1.77540				-329.23138	1552.14514	-48.23806	-558.67078	1505.15771	-50.63742	-213.15263	1530.93652	-253.53653	-588.90887	1405.09180	-175.00996	-365.19019	1293.32019	-179.41823	-449.18036	1527.17920	-332.44360	-71.09475	1270.29858	-308.11047	-711.11694	1158.50098	-122.37602	-72.31567	1037.59998	-219.76549	-344.44119	1013.33899	-475.46896	-173.34193	944.52850	-247.23820	-439.18469	905.54584	-176.64307	-731.24213	1016.69556	85.07079	-103.45667	511.13461	-301.81909	-470.38266	488.17917	-227.24411	-114.36539	102.50877	-447.48495	-434.47287	90.58266	-289.47922	
660	6.590	-466.20984	1399.84558	2.56078				-327.87009	1552.61194	-49.18589	-557.29523	1506.01184	-50.85644	-211.88451	1530.52344	-254.28258	-588.64154	1405.96521	-176.00697	-364.69479	1293.18750	-179.95389	-448.83826	1527.26855	-332.81375	-72.20606	1269.82935	-309.05099	-710.84442	1158.89844	-122.66792	-72.71255	1037.10071	-220.45197	-345.05319	1013.28973	-476.05148	-173.42305	944.84845	-247.50040	-439.59573	905.36725	-176.96970	-730.39038	1016.58118	84.61981	-103.43195	511.16046	-302.48218	-471.43622	488.64725	-226.37242	-114.30803	102.56736	-447.46091	-434.40991	90.54484	-289.47729	
661	6.600	-464.75650	1400.43604	1.91785				-326.74149	1553.30408	-50.17514	-555.92419	1506.97375	-50.66722	-210.69423	1530.17688	-255.45773	-588.01941	1406.09875	-175.97443	-364.90543	1293.54285	-181.30579	-448.36188	1527.57422	-333.33145	-72.07150	1268.80713	-309.85486	-710.51154	1159.11243	-122.78563	-72.44016	1034.97461	-226.60344	-346.00052	1013.47931	-477.11566	-173.90907	944.13971	-248.83179	-440.67093	905.48834	-177.43797	-729.59406	1016.73810	84.26396	-103.61990	511.27570	-302.53766	-471.34900	487.39316	-226.51952	-114.14993	102.93211	-447.79535	-434.43765	90.85919	-289.77194	
